<?xml version="1.0" encoding="UTF-8"?>
<svg width="288px" height="288px" viewBox="0 0 288 288" version="1.1" 
    xmlns="http://www.w3.org/2000/svg" 
    xmlns:xlink="http://www.w3.org/1999/xlink">
    <!-- Generator: Sketch 57.1 (83088) - https://sketch.com -->
    <title>ICONS / Forecast / Color / 42 - Mostly Cloudy with Thundershowers Night LK</title>
    <desc>Created with Sketch.</desc>
    <g id="ICONS-/-Forecast-/-Color-/-42---Mostly-Cloudy-with-Thundershowers-Night-LK" stroke="none" stroke-width="1" fill="none" fill-rule="evenodd">
        <g id="Mostly-cloudy-w--Thunderstorms" transform="translate(15.000000, 6.000000)" stroke-width="9.70149004">
            <path d="M55.165328,154.170188 C234.103799,139.603214 246.874607,109.765088 255.101754,96.4861858 C230.014484,102.138509 204.037654,91.7520549 189.763088,70.3614805 C175.488523,48.9709061 175.866443,20.9971448 190.713658,0 C162.23202,4.29591729 140.113447,27.0621508 136.641092,55.6558804" id="Path" fill="#686763" stroke-linejoin="bevel"></path>
            <path d="M94.6380354,188.839504 L55.8320752,188.839504 C25.0236614,188.772529 0.102801263,163.743081 0.169641395,132.934667 C0.236750888,102.126254 25.2661987,77.2053934 56.0746124,77.2723682 L65.4365503,77.2723682 C83.2669914,56.3229778 111.974757,48.2002482 138.138198,56.7017726 C164.30164,65.203297 182.751467,88.6493712 184.861893,116.078328 L196.600696,116.078328 C216.693139,116.078328 232.981283,132.366472 232.981283,152.458916 C232.981283,172.55136 216.693139,188.839504 196.600696,188.839504 L134.947726,188.839504" id="Path" fill="#BABABA"></path>
            <polyline id="Path" stroke="#FFFF00" points="104.145496 279.305898 141.73877 214.936512 99.7798251 214.936512 137.324592 150.567125"></polyline>
        </g>
    </g>
</svg>