<?xml version="1.0" encoding="UTF-8"?>
<svg width="288px" height="288px" viewBox="0 0 288 288" version="1.1" xmlns="http://www.w3.org/2000/svg" xmlns:xlink="http://www.w3.org/1999/xlink">
    <!-- Generator: Sketch 57.1 (83088) - https://sketch.com -->
    <title>ICONS / Forecast / Color / 43 - Mostly Cloudy with Flurries Night LK</title>
    <desc>Created with Sketch.</desc>
    <g id="ICONS-/-Forecast-/-Color-/-43---Mostly-Cloudy-with-Flurries-Night-LK" stroke="none" stroke-width="1" fill="none" fill-rule="evenodd">
        <g id="Mostly-cloudy-w--Flurries_1" transform="translate(16.000000, 5.000000)" stroke-width="9.56526807">
            <path d="M55.165328,154.170188 C234.103799,139.603214 246.874607,109.765088 255.101754,96.4861858 C230.014484,102.138509 204.037654,91.7520549 189.763088,70.3614805 C175.488523,48.9709061 175.866443,20.9971448 190.713658,0 C162.23202,4.29591729 140.113447,27.0621508 136.641092,55.6558804" id="Path" fill="#686763" stroke-linejoin="bevel"></path>
            <path d="M55.6335781,186.187943 C25.2577559,186.121908 0.686818168,161.443908 0.752719775,131.068086 C0.81888696,100.692264 25.4968876,76.1213257 55.8727098,76.1873601 L65.1031935,76.1873601 C82.6832712,55.5321274 110.987941,47.5234518 136.784012,55.9056034 C162.580084,64.287755 180.770851,87.4046147 182.851643,114.448432 L194.425618,114.448432 C214.235937,114.448432 230.295373,130.507869 230.295373,150.318188 C230.295373,170.128506 214.235937,186.187943 194.425618,186.187943 L55.6335781,186.187943 Z" id="Path" fill="#BABABA"></path>
            <path d="M118.046952,205.653263 L118.046952,282.175408" id="Path" stroke="#57bce7"></path>
            <path d="M84.9032984,224.7838 L151.14278,263.044872" id="Path" stroke="#57bce7"></path>
            <path d="M84.9032984,263.044872 L151.14278,224.7838" id="Path" stroke="#57bce7"></path>
        </g>
    </g>
</svg>