<?xml version="1.0" encoding="UTF-8"?>
<svg width="288px" height="288px" viewBox="0 0 288 288" version="1.1" xmlns="http://www.w3.org/2000/svg" xmlns:xlink="http://www.w3.org/1999/xlink">
    <!-- Generator: Sketch 57.1 (83088) - https://sketch.com -->
    <title>ICONS / Forecast / Color / 38 - Mostly Cloudy Night LK</title>
    <desc>Created with Sketch.</desc>
    <g id="ICONS-/-Forecast-/-Color-/-38---Mostly-Cloudy-Night-LK" stroke="none" stroke-width="1" fill="none" fill-rule="evenodd">
        <g id="Mostly-Cloudy_1" transform="translate(16.000000, 50.000000)" stroke-width="9.62962963">
            <path d="M55.165328,154.170188 C234.103799,139.603214 246.874607,109.765088 255.101754,96.4861858 C230.014484,102.138509 204.037654,91.7520549 189.763088,70.3614805 C175.488523,48.9709061 175.866443,20.9971448 190.713658,0 C162.23202,4.29591729 140.113447,27.0621508 136.641092,55.6558804" id="Path" fill="#686763" stroke-linejoin="bevel"></path>
            <path d="M55.9925926,187.440741 C25.4123814,187.374262 0.676113873,162.530211 0.74245891,131.95 C0.809071312,101.369789 25.6531222,76.6335213 56.2333333,76.7 L65.5259259,76.7 C83.2242942,55.905785 111.719417,47.8432216 137.689062,56.281774 C163.658706,64.7203263 181.971873,87.9927318 184.066667,115.218519 L195.718519,115.218519 C215.662134,115.218519 231.82963,131.386014 231.82963,151.32963 C231.82963,171.273246 215.662134,187.440741 195.718519,187.440741 L55.9925926,187.440741 Z" id="Path" fill="#BABABA"></path>
        </g>
    </g>
</svg>