<?xml version="1.0" encoding="UTF-8"?>
<svg width="288px" height="288px" viewBox="0 0 288 288" version="1.1" xmlns="http://www.w3.org/2000/svg" xmlns:xlink="http://www.w3.org/1999/xlink">
    <!-- Generator: Sketch 57.1 (83088) - https://sketch.com -->
    <title>ICONS / Forecast / Color / 40 - Mostly Cloudy w Showers Night LK</title>
    <desc>Created with Sketch.</desc>
    <g id="ICONS-/-Forecast-/-Color-/-40---Mostly-Cloudy-w-Showers-Night-LK" stroke="none" stroke-width="1" fill="none" fill-rule="evenodd">
        <g id="Mostly-cloudy-w--Showers" transform="translate(15.000000, 6.000000)" stroke-width="9.66666667">
            <path d="M55.165328,154.170188 C234.103799,139.603214 246.874607,109.765088 255.101754,96.4861858 C230.014484,102.138509 204.037654,91.7520549 189.763088,70.3614805 C175.488523,48.9709061 175.866443,20.9971448 190.713658,0 C162.23202,4.29591729 140.113447,27.0621508 136.641092,55.6558804" id="Path" fill="#686763" stroke-linejoin="bevel"></path>
            <path d="M56.2233333,188.161667 C25.525506,188.094932 0.694098926,163.155327 0.760699136,132.4575 C0.827567741,101.759673 25.7671727,76.9282656 56.465,76.995 L65.7933333,76.995 C83.5597723,56.1208072 112.164491,48.027234 138.23402,56.4982423 C164.303548,64.9692506 182.68715,88.3311654 184.79,115.661667 L196.486667,115.661667 C216.506989,115.661667 232.736667,131.891344 232.736667,151.911667 C232.736667,171.931989 216.506989,188.161667 196.486667,188.161667 L56.2233333,188.161667 Z" id="Path" fill="#BABABA"></path>
            <path d="M67.63,253.025 L94.1166667,207.64" id="Path" stroke="#57bce7"></path>
            <path d="M137.858333,253.025 L164.345,207.64" id="Path" stroke="#57bce7"></path>
            <path d="M89.38,275.935 L129.255,207.64" id="Path" stroke="#57bce7"></path>
        </g>
    </g>
</svg>